<?xml version="1.0" encoding="UTF-8" standalone="no"?>
<svg width="832px" height="832px" viewBox="0 0 832 832" version="1.1" xmlns="http://www.w3.org/2000/svg" xmlns:xlink="http://www.w3.org/1999/xlink">
    <!-- Generator: Sketch 3.8.3 (29802) - http://www.bohemiancoding.com/sketch -->
    <title>Combined Shape</title>
    <desc>Created with Sketch.</desc>
    <defs></defs>
    <g id="Page-1" stroke="none" stroke-width="1" fill="none" fill-rule="evenodd">
        <g id="Artboard-1" transform="translate(-96.000000, -96.000000)" fill="#FFFFFF">
            <g id="O" transform="translate(96.000000, 96.000000)">
                <path d="M416,832 C645.750456,832 832,645.750456 832,416 C832,186.249544 645.750456,0 416,0 C186.249544,0 0,186.249544 0,416 C0,645.750456 186.249544,832 416,832 Z M415.584416,799.168831 C627.432239,799.168831 799.168831,627.432239 799.168831,415.584416 C799.168831,203.736593 627.432239,32 415.584416,32 C203.736593,32 32,203.736593 32,415.584416 C32,627.432239 203.736593,799.168831 415.584416,799.168831 Z M254.07,278 L320.74,502.2 L396.26,278 L435.2,278 L510.72,502.2 L577.98,278 L620.46,278 L533.14,554 L489.48,554 L415.73,330.51 L341.98,554 L298.32,554 L211,278 L254.07,278 Z" id="Combined-Shape"></path>
            </g>
        </g>
    </g>
</svg>